<?xml version="1.0" encoding="UTF-8"?>
<svg id="Layer_1" xmlns="http://www.w3.org/2000/svg" viewBox="0 0 31.45 44">
  <defs>
    <style>
      .cls-1 {
        fill: #131116;
      }
    </style>
  </defs>
  <path d="M15.73,23.46c-4.49,0-8.14-3.65-8.14-8.14s3.65-8.14,8.14-8.14,8.14,3.65,8.14,8.14-3.65,8.14-8.14,8.14ZM15.73,7.44c-4.34,0-7.88,3.53-7.88,7.88s3.53,7.88,7.88,7.88,7.88-3.53,7.88-7.88-3.53-7.88-7.88-7.88Z"/>
  <path class="cls-1" d="M15.73,23.33c4.42,0,8.01-3.59,8.01-8.01s-3.59-8.01-8.01-8.01-8.01,3.59-8.01,8.01,3.59,8.01,8.01,8.01ZM23.22,15.32c0,1.62-.52,3.11-1.39,4.34h-1.89c-.44,0-.85-.21-1.11-.56l-.74-1c-.27-.36-.34-.82-.2-1.25l.51-1.56c.13-.4.44-.72.83-.87l1.16-.43c.43-.16.92-.09,1.29.18l1.55,1.13s0,.01,0,.02ZM15.98,10.42c0-.44.21-.86.57-1.12l1.52-1.1c1.49.49,2.77,1.44,3.68,2.67l-.55,1.71c-.13.4-.44.72-.83.87l-1.24.46c-.43.16-.92.09-1.29-.18l-1.29-.94c-.36-.26-.57-.67-.57-1.12v-1.26ZM16.55,17.83c.44,0,.85.21,1.11.56l.74.99c.27.36.34.82.2,1.25l-.59,1.82c-.72.23-1.48.36-2.28.36s-1.55-.12-2.26-.35l-.59-1.82c-.14-.42-.06-.88.2-1.24l.73-1.01c.26-.36.67-.57,1.11-.57h1.63ZM13.38,8.2l1.52,1.1c.36.26.57.67.57,1.12v1.26c0,.44-.21.86-.57,1.12l-1.31.95c-.37.27-.85.34-1.28.18l-1.17-.42c-.4-.14-.71-.47-.84-.87l-.58-1.78c.91-1.22,2.19-2.15,3.66-2.64ZM8.23,15.36l1.58-1.14c.37-.27.85-.34,1.28-.18l1.14.41c.4.14.71.47.84.87l.5,1.55c.14.42.06.88-.2,1.24l-.71.97c-.26.36-.67.57-1.11.57h-1.94c-.86-1.21-1.37-2.69-1.38-4.29Z"/>
  <path class="cls-1" d="M15.73,44l-1.02-.94c-.15-.14-3.71-3.44-7.31-8.43C2.49,27.85,0,21.48,0,15.73,0,7.05,7.05,0,15.73,0s15.73,7.05,15.73,15.73c0,5.76-2.49,12.12-7.4,18.91-3.6,4.98-7.16,8.29-7.31,8.43l-1.02.94ZM15.73,3c-7.02,0-12.73,5.71-12.73,12.73,0,10.29,9.55,20.89,12.73,24.13,3.18-3.24,12.73-13.84,12.73-24.13,0-7.02-5.71-12.73-12.73-12.73Z"/>
</svg>