<?xml version="1.0" encoding="UTF-8"?>
<svg xmlns="http://www.w3.org/2000/svg" version="1.1" viewBox="0 0 32 44">
  <defs>
    <style>
      .cls-1 {
        fill: #fff;
      }

      .cls-2 {
        fill: #131116;
      }
    </style>
  </defs>
  <!-- Generator: Adobe Illustrator 28.7.1, SVG Export Plug-In . SVG Version: 1.2.0 Build 142)  -->
  <g>
    <g id="Layer_1">
      <g>
        <path class="cls-1" d="M16,2.1c-7.7,0-14,6.3-14,14,0,12.9,14,25.8,14,25.8,0,0,14-12.9,14-25.8S23.7,2.1,16,2.1Z"/>
        <g>
          <path d="M16,23.5c-4.5,0-8.1-3.7-8.1-8.1s3.7-8.1,8.1-8.1,8.1,3.7,8.1,8.1-3.7,8.1-8.1,8.1ZM16,7.4c-4.3,0-7.9,3.5-7.9,7.9s3.5,7.9,7.9,7.9,7.9-3.5,7.9-7.9-3.5-7.9-7.9-7.9Z"/>
          <path class="cls-2" d="M16,23.3c4.4,0,8-3.6,8-8s-3.6-8-8-8-8,3.6-8,8,3.6,8,8,8ZM23.5,15.3c0,1.6-.5,3.1-1.4,4.3h-1.9c-.4,0-.8-.2-1.1-.6l-.7-1c-.3-.4-.3-.8-.2-1.2l.5-1.6c.1-.4.4-.7.8-.9l1.2-.4c.4-.2.9,0,1.3.2l1.6,1.1s0,0,0,0ZM16.3,10.4c0-.4.2-.9.6-1.1l1.5-1.1c1.5.5,2.8,1.4,3.7,2.7l-.6,1.7c-.1.4-.4.7-.8.9l-1.2.5c-.4.2-.9,0-1.3-.2l-1.3-.9c-.4-.3-.6-.7-.6-1.1v-1.3ZM16.8,17.8c.4,0,.8.2,1.1.6l.7,1c.3.4.3.8.2,1.2l-.6,1.8c-.7.2-1.5.4-2.3.4s-1.5-.1-2.3-.3l-.6-1.8c-.1-.4,0-.9.2-1.2l.7-1c.3-.4.7-.6,1.1-.6h1.6ZM13.7,8.2l1.5,1.1c.4.3.6.7.6,1.1v1.3c0,.4-.2.9-.6,1.1l-1.3,1c-.4.3-.9.3-1.3.2l-1.2-.4c-.4-.1-.7-.5-.8-.9l-.6-1.8c.9-1.2,2.2-2.2,3.7-2.6ZM8.5,15.4l1.6-1.1c.4-.3.9-.3,1.3-.2l1.1.4c.4.1.7.5.8.9l.5,1.5c.1.4,0,.9-.2,1.2l-.7,1c-.3.4-.7.6-1.1.6h-1.9c-.9-1.2-1.4-2.7-1.4-4.3Z"/>
          <path class="cls-2" d="M16,44l-1-.9c-.1-.1-3.7-3.4-7.3-8.4C2.8,27.8.3,21.5.3,15.7.3,7.1,7.3,0,16,0s15.7,7.1,15.7,15.7-2.5,12.1-7.4,18.9c-3.6,5-7.2,8.3-7.3,8.4l-1,.9ZM16,3c-7,0-12.7,5.7-12.7,12.7,0,10.3,9.5,20.9,12.7,24.1,3.2-3.2,12.7-13.8,12.7-24.1S23,3,16,3Z"/>
        </g>
      </g>
    </g>
  </g>
</svg>